<svg xmlns="http://www.w3.org/2000/svg" width="80" height="71.111" viewBox="0 0 80 71.111">
    <defs>
        <style>
            .cls-1{fill:#7b7b7b}
        </style>
    </defs>
    <path id="desktop-solid" d="M73.333 0H6.667A6.668 6.668 0 0 0 0 6.667v44.444a6.668 6.668 0 0 0 6.667 6.667h26.666l-2.222 6.667h-10a3.333 3.333 0 1 0 0 6.667h37.778a3.333 3.333 0 1 0 0-6.667h-10l-2.222-6.667h26.666A6.668 6.668 0 0 0 80 51.111V6.667A6.668 6.668 0 0 0 73.333 0zm-2.222 48.889H8.889v-40h62.222z" class="cls-1"/>
</svg>
