<svg xmlns="http://www.w3.org/2000/svg" width="44.242" height="70.787" viewBox="0 0 44.242 70.787">
    <defs>
        <style>
            .cls-1{fill:#7b7b7b}
        </style>
    </defs>
    <path id="mobile-alt-solid" d="M37.605 0H6.636A6.638 6.638 0 0 0 0 6.636V64.15a6.638 6.638 0 0 0 6.636 6.636h30.969a6.638 6.638 0 0 0 6.636-6.636V6.636A6.638 6.638 0 0 0 37.605 0zM22.121 66.363a4.424 4.424 0 1 1 4.424-4.424 4.419 4.419 0 0 1-4.424 4.424zm15.484-14.932a1.664 1.664 0 0 1-1.659 1.659H8.3a1.664 1.664 0 0 1-1.659-1.659V8.3A1.664 1.664 0 0 1 8.3 6.636h27.646A1.664 1.664 0 0 1 37.605 8.3z" class="cls-1"/>
</svg>
